<svg width="32" height="32" viewBox="0 0 32 32" fill="none" xmlns="http://www.w3.org/2000/svg">
<g id="arcticons:amazon-music">
<path id="Vector" d="M16.0001 30.3333C23.9162 30.3333 30.3334 23.916 30.3334 16C30.3334 8.08388 23.9162 1.66663 16.0001 1.66663C8.084 1.66663 1.66675 8.08388 1.66675 16C1.66675 23.916 8.084 30.3333 16.0001 30.3333Z" stroke="#F8F8F8" stroke-width="0.666667" stroke-linecap="round" stroke-linejoin="round"/>
<path id="Vector_2" d="M21.52 19.8C22.262 19.5 23.5814 19.1013 23.9787 19.5827C24.408 20.1033 23.8654 21.234 23.3654 22.112" stroke="#F8F8F8" stroke-width="0.666667" stroke-linecap="round" stroke-linejoin="round"/>
<path id="Vector_3" d="M7.86535 20.1486C9.03802 21.08 12.5013 22.5053 16.1907 22.5053C18.6113 22.5623 20.9866 21.8428 22.9687 20.452M13.6027 13.4166V15.6166C13.6027 15.9702 13.7432 16.3094 13.9932 16.5594C14.2433 16.8095 14.5824 16.95 14.936 16.95C15.2896 16.95 15.6288 16.8095 15.8788 16.5594C16.1289 16.3094 16.2693 15.9702 16.2693 15.6166M16.2693 15.6166V13.4166M16.2693 15.6166V16.95M6.93335 14.8166C6.93335 14.463 7.07383 14.1239 7.32387 13.8738C7.57392 13.6238 7.91306 13.4833 8.26668 13.4833C8.6203 13.4833 8.95944 13.6238 9.20949 13.8738C9.45954 14.1239 9.60002 14.463 9.60002 14.8166M9.60002 14.8166V16.95M9.60002 14.8166C9.60002 14.463 9.74049 14.1239 9.99054 13.8738C10.2406 13.6238 10.5797 13.4833 10.9333 13.4833C11.287 13.4833 11.6261 13.6238 11.8762 13.8738C12.1262 14.1239 12.2667 14.463 12.2667 14.8166V16.95M6.93335 13.4833V16.95" stroke="#F8F8F8" stroke-width="0.666667" stroke-linecap="round" stroke-linejoin="round"/>
<path id="Vector_4" d="M21.2533 12.25C21.511 12.25 21.72 12.041 21.72 11.7833C21.72 11.5256 21.511 11.3167 21.2533 11.3167C20.9956 11.3167 20.7866 11.5256 20.7866 11.7833C20.7866 12.041 20.9956 12.25 21.2533 12.25Z" fill="#F8F8F8"/>
<path id="Vector_5" d="M21.2534 13.4166V16.95M17.6934 16.6486C18.0059 16.8882 18.4001 16.9952 18.7908 16.9466H19.0894C19.3234 16.9463 19.5477 16.853 19.713 16.6874C19.8782 16.5218 19.971 16.2973 19.9708 16.0633C19.971 15.8293 19.8782 15.6048 19.713 15.4392C19.5477 15.2736 19.3234 15.1803 19.0894 15.18H18.4914C18.3756 15.1799 18.2608 15.157 18.1538 15.1125C18.0468 15.0681 17.9496 15.003 17.8677 14.9209C17.7859 14.8389 17.721 14.7415 17.6768 14.6344C17.6326 14.5273 17.6099 14.4125 17.6101 14.2966C17.6099 14.1808 17.6326 14.066 17.6768 13.9589C17.721 13.8517 17.7859 13.7544 17.8677 13.6723C17.9496 13.5903 18.0468 13.5252 18.1538 13.4808C18.2608 13.4363 18.3756 13.4134 18.4914 13.4133H18.7908C19.1811 13.3653 19.5747 13.4726 19.8868 13.712M25.0668 16.2786C24.9501 16.4827 24.7815 16.6523 24.5781 16.7701C24.3748 16.888 24.1438 16.9501 23.9088 16.95C23.5552 16.95 23.216 16.8095 22.966 16.5595C22.7159 16.3094 22.5754 15.9703 22.5754 15.6166V14.75C22.5754 14.3964 22.7159 14.0572 22.966 13.8072C23.216 13.5571 23.5552 13.4166 23.9088 13.4166C24.1434 13.4165 24.374 13.4783 24.5771 13.5958C24.7802 13.7134 24.9486 13.8825 25.0654 14.086" stroke="#F8F8F8" stroke-width="0.666667" stroke-linecap="round" stroke-linejoin="round"/>
</g>
</svg>
