<svg width="32" height="32" viewBox="0 0 32 32" fill="none" xmlns="http://www.w3.org/2000/svg">
<g id="simple-icons:applemusic" clip-path="url(#clip0_147_9449)">
<path id="Vector" d="M31.992 8.16535C32.0023 7.18273 31.8949 6.20242 31.672 5.24535C31.2493 3.49869 30.256 2.16535 28.7653 1.18802C28.005 0.699793 27.1537 0.370515 26.2627 0.220019C25.5735 0.101346 24.8765 0.0344923 24.1773 0.0200189C24.124 0.0160189 24.0667 0.00668555 24.012 0.00268555H7.98133C7.77867 0.0160189 7.57733 0.0253522 7.37467 0.0373522C6.37867 0.0946856 5.388 0.201352 4.45067 0.570686C2.66933 1.27735 1.384 2.50669 0.630667 4.27735C0.374667 4.87469 0.241333 5.51069 0.146667 6.15469C0.0729663 6.67624 0.0284525 7.2015 0.0133333 7.72802C0.0133333 7.77069 0.004 7.81069 0 7.85202V24.1494C0.0133333 24.336 0.0226667 24.5267 0.036 24.7147C0.102667 25.8014 0.241333 26.88 0.698667 27.8787C1.56533 29.772 3.016 31.016 5.01067 31.6133C5.57067 31.7827 6.152 31.8627 6.73467 31.9174C7.47467 31.988 8.21467 31.9974 8.95733 31.9974H23.664C24.3639 31.9969 25.063 31.9524 25.7573 31.864C26.8533 31.7227 27.8853 31.3974 28.8173 30.784C29.9228 30.0694 30.7943 29.0463 31.324 27.8414C31.572 27.2814 31.7147 26.6814 31.8173 26.076C31.968 25.176 32.0013 24.2654 32 23.356C31.9973 18.2894 32 13.2294 31.996 8.16535H31.992ZM23.428 13.4854V21.1014C23.428 21.6574 23.3507 22.204 23.1027 22.7094C22.716 23.496 22.0893 23.992 21.252 24.2294C20.7853 24.3627 20.3107 24.4387 19.8253 24.46C18.5587 24.52 17.4613 23.66 17.2347 22.412C17.1395 21.8732 17.2232 21.318 17.4731 20.8312C17.723 20.3444 18.1253 19.9527 18.6187 19.716C19.0493 19.5027 19.512 19.3827 19.976 19.284C20.48 19.1747 20.9867 19.08 21.488 18.964C21.8533 18.88 22.0973 18.6574 22.168 18.276C22.1861 18.1914 22.195 18.1052 22.1947 18.0187C22.1947 15.5987 22.1947 13.1787 22.192 10.7614C22.1911 10.678 22.1795 10.5951 22.1573 10.5147C22.104 10.3147 21.9573 10.1907 21.752 10.2027C21.5387 10.216 21.328 10.2494 21.1187 10.2907C20.1053 10.4907 19.092 10.6947 18.0787 10.8987L14.9787 11.5254L13.1467 11.896C13.1253 11.9 13.104 11.9094 13.0827 11.9134C12.7133 12.016 12.58 12.184 12.5627 12.5667C12.56 12.6227 12.5627 12.6814 12.5627 12.74C12.56 16.2094 12.5627 19.6787 12.5587 23.1467C12.5587 23.7067 12.496 24.2614 12.272 24.7827C11.9013 25.636 11.2453 26.1694 10.36 26.4267C9.89333 26.56 9.41333 26.64 8.92667 26.656C7.64667 26.704 6.58667 25.856 6.36667 24.5974C6.18 23.5147 6.67333 22.3507 7.90533 21.8307C8.38133 21.6307 8.87867 21.5214 9.38267 21.4174C9.76533 21.3374 10.1493 21.2627 10.5293 21.1814C11.04 21.0707 11.3067 20.7507 11.3293 20.2294V20.0294C11.3293 16.0827 11.3293 12.1334 11.332 8.18669C11.332 8.02269 11.3493 7.85335 11.388 7.69335C11.4813 7.31335 11.752 7.09602 12.116 7.00269C12.456 6.91469 12.8027 6.85335 13.148 6.78269C14.1253 6.58269 15.1027 6.38802 16.0813 6.19069L19.108 5.57735C20.0013 5.39869 20.8947 5.21735 21.788 5.04002C22.0813 4.98269 22.3773 4.92269 22.672 4.89869C23.0853 4.86535 23.3693 5.12535 23.4107 5.54135C23.4213 5.63869 23.4267 5.73869 23.4267 5.83869C23.4293 8.38535 23.4293 10.9347 23.4267 13.4814L23.428 13.4854Z" fill="#F8F8F8"/>
</g>
<defs>
<clipPath id="clip0_147_9449">
<rect width="32" height="32" fill="white"/>
</clipPath>
</defs>
</svg>
