<svg width="32" height="32" viewBox="0 0 32 32" fill="none" xmlns="http://www.w3.org/2000/svg">
<g id="grommet-icons:apple-app-store">
<path id="Vector" d="M4.00008 22.6666C3.64646 22.6666 3.30732 22.5262 3.05727 22.2761C2.80722 22.0261 2.66675 21.6869 2.66675 21.3333C2.66675 20.9797 2.80722 20.6405 3.05727 20.3905C3.30732 20.1404 3.64646 20 4.00008 20H18.0001C19.3334 20 20.6667 22.6666 20.0001 22.6666H4.00008ZM22.6667 22.6666C22.3131 22.6666 21.974 22.5262 21.7239 22.2761C21.4739 22.0261 21.3334 21.6869 21.3334 21.3333C21.3334 20.9797 21.4739 20.6405 21.7239 20.3905C21.974 20.1404 22.3131 20 22.6667 20H28.0001C28.3537 20 28.6928 20.1404 28.9429 20.3905C29.1929 20.6405 29.3334 20.9797 29.3334 21.3333C29.3334 21.6869 29.1929 22.0261 28.9429 22.2761C28.6928 22.5262 28.3537 22.6666 28.0001 22.6666H22.6667ZM16.8441 4.66797C17.0205 4.36138 17.3116 4.13745 17.6531 4.04543C17.9947 3.95341 18.3588 4.00085 18.6654 4.17731C18.972 4.35377 19.1959 4.64479 19.288 4.98635C19.38 5.32792 19.3325 5.69205 19.1561 5.99864L9.94675 21.9933C9.85946 22.1451 9.74313 22.2782 9.60439 22.3851C9.46566 22.4919 9.30724 22.5704 9.13817 22.616C8.96911 22.6617 8.79271 22.6735 8.61906 22.651C8.4454 22.6285 8.27789 22.5719 8.12608 22.4846C7.97427 22.3974 7.84114 22.281 7.73429 22.1423C7.62744 22.0036 7.54897 21.8451 7.50334 21.6761C7.45772 21.507 7.44584 21.3306 7.46839 21.1569C7.49093 20.9833 7.54746 20.8158 7.63475 20.664L16.8441 4.66797ZM5.33341 24.6666C6.00008 23.3333 10.0001 22 8.66675 24.2933C7.94331 25.5302 7.21753 26.7658 6.48941 28C6.31296 28.3066 6.02193 28.5305 5.68037 28.6225C5.3388 28.7145 4.97467 28.6671 4.66808 28.4906C4.36149 28.3142 4.13756 28.0232 4.04554 27.6816C3.95352 27.34 4.00096 26.9759 4.17741 26.6693L5.33341 24.6666ZM12.1774 5.99864C12.001 5.69205 11.9535 5.32792 12.0455 4.98635C12.1376 4.64479 12.3615 4.35377 12.6681 4.17731C12.9747 4.00085 13.3388 3.95341 13.6804 4.04543C14.0219 4.13745 14.313 4.36138 14.4894 4.66797L16.8134 8.70664C16.9036 8.85848 16.9627 9.02672 16.9873 9.20159C17.0119 9.37645 17.0015 9.55446 16.9567 9.72528C16.912 9.8961 16.8337 10.0563 16.7265 10.1967C16.6193 10.337 16.4853 10.4546 16.3323 10.5428C16.1793 10.6309 16.0103 10.6877 15.8351 10.71C15.6599 10.7323 15.4821 10.7195 15.3119 10.6725C15.1417 10.6255 14.9825 10.5451 14.8436 10.4361C14.7047 10.327 14.5888 10.1915 14.5027 10.0373L12.1774 5.99864ZM17.3334 15.3333C16.1361 13.3333 17.3334 9.33331 18.2881 11.328L27.1547 26.6666C27.3256 26.9727 27.3691 27.3338 27.2758 27.6717C27.1824 28.0096 26.9597 28.2971 26.656 28.472C26.3522 28.647 25.9917 28.6953 25.6526 28.6064C25.3135 28.5176 25.023 28.2987 24.8441 27.9973L17.3334 15.3333Z" fill="#F8F8F8"/>
</g>
</svg>
