<svg width="32" height="32" viewBox="0 0 32 32" fill="none" xmlns="http://www.w3.org/2000/svg">
<g id="bxl:play-store">
<path id="Vector" d="M17.2719 15.488L21.2146 11.5453L8.47992 4.388C7.63592 3.932 6.84525 3.868 6.15192 4.36666L17.2719 15.488ZM21.8866 20.104L25.9853 17.7987C26.7853 17.3507 27.2239 16.716 27.2239 16.012C27.2239 15.3093 26.7853 14.6733 25.9866 14.2253L22.2759 12.1413L18.0986 16.3173L21.8866 20.104ZM5.46659 5.336C5.38125 5.59866 5.33325 5.892 5.33325 6.21333V25.82C5.33325 26.328 5.44525 26.7653 5.64792 27.1133L16.4439 16.316L5.46659 5.336ZM17.2719 17.1427L6.53592 27.88C6.74125 27.9587 6.96259 28 7.19592 28C7.61192 28 8.04525 27.8773 8.48659 27.632L20.8266 20.7027L17.2719 17.1427Z" fill="#F8F8F8"/>
</g>
</svg>
