<svg width="33" height="32" viewBox="0 0 33 32" fill="none" xmlns="http://www.w3.org/2000/svg">
<g id="carbon:chart-line">
<path id="Vector" d="M5.00325 28L11.3933 16L18.6933 22.49C18.9218 22.6931 19.1939 22.841 19.4886 22.9225C19.7833 23.004 20.0928 23.0168 20.3933 22.96C20.6964 22.9032 20.9824 22.7771 21.2287 22.5915C21.475 22.4059 21.6751 22.1658 21.8133 21.89L27.3333 10.9L25.5133 10L20.0233 21L12.7233 14.51C12.5005 14.3028 12.2333 14.1492 11.9422 14.0608C11.6511 13.9724 11.3436 13.9516 11.0433 14C10.7466 14.0492 10.4649 14.1647 10.219 14.3378C9.97319 14.511 9.76954 14.7373 9.62325 15L4.33325 25V2H2.33325V28C2.33325 28.5304 2.54397 29.0391 2.91904 29.4142C3.29411 29.7893 3.80282 30 4.33325 30H30.3333V28H5.00325Z" fill="#F8F8F8"/>
</g>
</svg>
