<svg width="25" height="24" viewBox="0 0 25 24" fill="none" xmlns="http://www.w3.org/2000/svg">
<g id="iconamoon:discover">
<g id="Group">
<path id="Vector" d="M12.6667 21C17.6373 21 21.6667 16.9706 21.6667 12C21.6667 7.02944 17.6373 3 12.6667 3C7.69619 3 3.66675 7.02944 3.66675 12C3.66675 16.9706 7.69619 21 12.6667 21Z" stroke="#F8F8F8" stroke-width="2" stroke-linecap="round" stroke-linejoin="round"/>
<path id="Vector_2" d="M11.9737 9.739L15.6667 9L14.9277 12.693C14.8504 13.0801 14.6602 13.4356 14.3812 13.7148C14.1022 13.994 13.7468 14.1844 13.3597 14.262L9.66675 15L10.4057 11.307C10.4833 10.9201 10.6735 10.5648 10.9525 10.2858C11.2316 10.0068 11.5869 9.81654 11.9737 9.739Z" stroke="#F8F8F8" stroke-width="2" stroke-linecap="round" stroke-linejoin="round"/>
</g>
</g>
</svg>
