<svg width="32" height="32" viewBox="0 0 32 32" fill="none" xmlns="http://www.w3.org/2000/svg">
<g id="simple-icons:youtubemusic" clip-path="url(#clip0_147_9457)">
<path id="Vector" d="M16 0C7.168 0 0 7.168 0 16C0 24.832 7.168 32 16 32C24.832 32 32 24.832 32 16C32 7.168 24.832 0 16 0ZM16 25.472C10.768 25.472 6.528 21.232 6.528 16C6.528 10.768 10.768 6.528 16 6.528C21.232 6.528 25.472 10.768 25.472 16C25.472 21.232 21.232 25.472 16 25.472ZM16 7.696C11.424 7.696 7.696 11.424 7.696 16C7.696 20.576 11.424 24.304 16 24.304C20.576 24.304 24.304 20.576 24.304 16C24.304 11.424 20.576 7.696 16 7.696ZM12.912 20.72V11.28L21.088 16L12.912 20.72Z" fill="#F8F8F8"/>
</g>
<defs>
<clipPath id="clip0_147_9457">
<rect width="32" height="32" fill="white"/>
</clipPath>
</defs>
</svg>
